# xmcd
#
# Track frame offsets: 
#        150
#        18381
#        46628
#        70163
#        91361
#        109050
#        126621
#        148708
#        163322
#        180587
#        204812
#        230130
#        247014
#        271058
#        301427
#        318157
#        338785
#
# Disc length: 4748 seconds
#
# Revision: 6
# Processed by: cddbd v1.5.2PL0 Copyright (c) Steve Scherf et al.
# Submitted via: ExactAudioCopy v0.95b3
#
DISCID=f1128a11
DTITLE=Various Artist - Elton John~Greatest Hits 1970-2002 CD 1
DYEAR=2002
DGENRE=Pop
TTITLE0=Elton John - Your Song
TTITLE1=Elton John - Tiny Dancer
TTITLE2=Elton John - Honky Cat
TTITLE3=Elton John - Rocket Man I Think It's Going To Be A Long, Long 
TTITLE3=Time
TTITLE4=Elton John - Crocodile Rock
TTITLE5=Elton John - Daniel
TTITLE6=Elton John - Saturdays Night's Alright For Fighting
TTITLE7=Elton John - Goodbye Yellow Brick Road
TTITLE8=Elton John - Candle In The Wind
TTITLE9=Elton John - Bennie And The Jets
TTITLE10=Elton John - Don't Let The Sun Go Down On Me
TTITLE11=Elton John - The Bitch Is Back
TTITLE12=Elton John - Philadelphia Freedom
TTITLE13=Elton John - Someone Saved My Life Tonight
TTITLE14=Elton John - Island Girl
TTITLE15=Elton John and Kiki Dee - Don't Go Breaking My Heart
TTITLE16=Elton John - Sorry Seems To Be The Hardest Word
EXTD=YEAR: 2002
EXTT0=
EXTT1=
EXTT2=
EXTT3=
EXTT4=
EXTT5=
EXTT6=
EXTT7=
EXTT8=
EXTT9=
EXTT10=
EXTT11=
EXTT12=
EXTT13=
EXTT14=
EXTT15=
EXTT16=
PLAYORDER=
